<?xml version="1.0" standalone="no"?>
<!DOCTYPE svg PUBLIC "-//W3C//DTD SVG 20010904//EN"
 "http://www.w3.org/TR/2001/REC-SVG-20010904/DTD/svg10.dtd">
<svg version="1.0" xmlns="http://www.w3.org/2000/svg"
 width="190.000000pt" height="190.000000pt" viewBox="0 0 190.000000 190.000000"
 preserveAspectRatio="xMidYMid meet">
<metadata>
Created by potrace 1.11, written by Peter Selinger 2001-2013
</metadata>
<g transform="translate(0.000000,190.000000) scale(0.100000,-0.100000)"
fill="#000000" stroke="none">
<path d="M200 950 l0 -950 750 0 750 0 0 950 0 950 -750 0 -750 0 0 -950z
m1438 -6 l4 -911 -126 1 -127 1 -5 25 c-31 152 -84 270 -154 340 l-45 45 55
55 c96 96 127 197 117 380 -5 95 -40 224 -71 259 -21 25 -63 112 -75 157 -14
53 -81 129 -126 144 -78 26 -135 -25 -135 -120 0 -36 -3 -40 -25 -40 -19 0
-29 9 -44 39 -11 21 -35 51 -53 66 -28 24 -38 26 -77 21 -25 -3 -55 -13 -68
-21 -32 -21 -65 -91 -68 -144 -1 -25 -14 -74 -29 -109 -52 -124 -74 -327 -47
-445 18 -76 69 -167 125 -221 l51 -50 -46 -71 c-49 -72 -99 -212 -99 -273 l0
-32 -160 0 -160 0 0 463 c-1 254 -3 659 -6 900 l-5 437 143 0 c148 0 852 12
855 14 1 0 91 1 199 1 l198 0 4 -911z m-532 403 c16 -18 40 -57 52 -87 13 -30
39 -85 58 -122 54 -105 74 -179 75 -282 2 -174 -24 -253 -108 -323 -69 -58
-108 -75 -193 -88 -181 -26 -289 27 -362 177 -60 124 -53 319 18 500 23 57 33
95 29 111 -9 34 18 83 56 102 28 15 33 15 55 0 14 -9 34 -36 44 -60 24 -55 40
-63 115 -56 l60 6 3 55 c4 89 8 100 41 100 20 0 38 -10 57 -33z"/>
<path d="M1033 1138 c-27 -13 -66 -89 -61 -120 6 -41 35 -33 56 15 24 54 37
63 67 47 30 -16 55 -7 55 19 0 41 -67 63 -117 39z"/>
<path d="M736 1097 c-24 -19 -28 -28 -22 -50 8 -32 36 -36 43 -7 9 34 41 23
75 -25 22 -31 39 -45 55 -45 38 0 29 41 -19 94 -53 58 -91 67 -132 33z"/>
<path d="M1014 946 c-11 -29 0 -51 26 -51 21 0 25 5 25 30 0 24 -5 31 -23 33
-13 2 -24 -3 -28 -12z"/>
<path d="M833 924 c-15 -39 38 -67 60 -32 8 12 7 21 -2 32 -17 21 -50 20 -58
0z"/>
<path d="M867 833 c-11 -10 -8 -51 3 -58 6 -3 10 -15 10 -27 0 -18 -4 -19 -35
-14 -28 6 -37 3 -42 -10 -4 -11 1 -22 12 -30 22 -17 81 -18 90 -3 4 6 22 8 45
4 42 -7 93 13 104 41 13 34 -23 47 -55 18 -28 -25 -59 -10 -59 30 0 17 -5 37
-12 44 -13 13 -50 16 -61 5z"/>
</g>
</svg>
